<?xml version="1.0" standalone="no"?>
<!DOCTYPE svg PUBLIC "-//W3C//DTD SVG 20010904//EN"
 "http://www.w3.org/TR/2001/REC-SVG-20010904/DTD/svg10.dtd">
<svg version="1.0"
  xmlns="http://www.w3.org/2000/svg" width="487.000000pt" height="472.000000pt" viewBox="0 0 487.000000 472.000000" preserveAspectRatio="xMidYMid meet">

  <g transform="translate(0.000000,472.000000) scale(0.100000,-0.100000)" fill="#000000" stroke="none">
    <path d="M2195 4710 c-1034 -109 -1883 -823 -2124 -1788 -54 -217 -66 -315
-65 -567 0 -252 14 -365 73 -591 153 -583 558 -1109 1098 -1424 283 -166 583
-269 938 -321 138 -21 520 -18 670 5 544 83 1019 319 1395 696 363 363 590
814 666 1325 24 164 24 466 0 630 -101 675 -468 1250 -1045 1635 -285 191
-662 335 -1011 385 -132 19 -474 28 -595 15z m-223 -1441 c147 -23 289 -88
404 -185 35 -30 66 -54 70 -54 3 0 34 25 67 56 72 65 225 143 330 169 204 49
423 17 602 -87 87 -51 239 -201 287 -283 48 -84 83 -176 102 -267 13 -65 16
-165 16 -623 l0 -545 -225 0 -225 0 -2 558 -3 557 -28 57 c-36 74 -101 139
-175 175 -51 25 -68 28 -157 28 -91 0 -105 -3 -158 -29 -74 -38 -140 -109
-180 -194 l-32 -67 -3 -542 -3 -543 -219 0 -219 0 -3 549 -3 548 -40 79 c-47
92 -110 150 -202 184 -83 31 -196 26 -275 -13 -73 -36 -140 -103 -181 -181
l-32 -61 -3 -552 -3 -553 -220 0 -220 0 4 583 c4 650 1 626 77 782 157 323
505 508 852 454z"/>
  </g>
</svg>
